<?xml version="1.0" encoding="UTF-8" standalone="no"?>
<svg
   version="1.1"
   width="180"
   height="180"
   id="svg98"
   sodipodi:docname="favicon.svg"
   xmlns:inkscape="http://www.inkscape.org/namespaces/inkscape"
   xmlns:sodipodi="http://sodipodi.sourceforge.net/DTD/sodipodi-0.dtd"
   xmlns="http://www.w3.org/2000/svg"
   xmlns:svg="http://www.w3.org/2000/svg">
  <defs
     id="defs100">
    <sodipodi:namedview
       id="namedview33"
       pagecolor="#ffffff"
       bordercolor="#000000"
       borderopacity="0.25"
       inkscape:showpageshadow="2"
       inkscape:pageopacity="0.0"
       inkscape:pagecheckerboard="0"
       inkscape:deskcolor="#d1d1d1"
       showgrid="false"
       inkscape:zoom="2.5675"
       inkscape:cx="15.579357"
       inkscape:cy="-6.037001"
       inkscape:window-width="2560"
       inkscape:window-height="1352"
       inkscape:window-x="0"
       inkscape:window-y="0"
       inkscape:window-maximized="1"
       inkscape:current-layer="g5706" />
    <defs
       id="defs13">
      <rect
         x="24.537489"
         y="45.180138"
         width="160.66212"
         height="127.75073"
         id="rect909" />
      <linearGradient
         id="shine"
         x1="10"
         y1="10"
         x2="10"
         y2="190"
         gradientUnits="userSpaceOnUse"
         gradientTransform="translate(-10,-10)">
        <stop
           offset="0%"
           stop-color="white"
           stop-opacity="0.8"
           id="stop6" />
        <stop
           offset="40%"
           stop-color="white"
           stop-opacity="0.2"
           id="stop8" />
        <stop
           offset="100%"
           stop-color="white"
           stop-opacity="0"
           id="stop10" />
      </linearGradient>
    </defs>
  </defs>
  <path
     id="rect2"
     style="stroke-width:2"
     d="m 40,0 h 100 c 22.16,0 40,17.84 40,40 v 100 c 0,22.16 -17.84,40 -40,40 H 40 C 17.84,180 0,162.16 0,140 V 40 C 0,17.84 17.84,0 40,0 Z" />
  <path
     id="rect4"
     style="opacity:0.25;fill:url(#shine)"
     d="m 40,0 h 100 c 22.16,0 40,17.84 40,40 v 100 c 0,22.16 -17.84,40 -40,40 H 40 C 17.84,180 0,162.16 0,140 V 40 C 0,17.84 17.84,0 40,0 Z" />
  <path
     id="circle15-1"
     d="m 57.929828,131.17712 a 10,10 0 0 1 -10,10 10,10 0 0 1 -10,-10 10,10 0 0 1 10,-10 10,10 0 0 1 10,10 z"
     style="fill:none;stroke:#60a5fa;stroke-width:8;stroke-linecap:round;stroke-linejoin:round" />
  <path
     id="circle23"
     d="m 98.33229,89.756573 a 7.7967463,7.8655977 0 0 1 -7.63643,7.863927 7.7967463,7.8655977 0 0 1 -7.950473,-7.54053 7.7967463,7.8655977 0 0 1 7.309473,-8.174032 7.7967463,7.8655977 0 0 1 8.25107,7.204387 l -7.77039,0.646248 z"
     style="fill:none;stroke:#60a5fa;stroke-width:8;stroke-linecap:round;stroke-linejoin:round" />
  <path
     id="circle15"
     d="m 57.764669,50.137703 a 10,10 0 0 1 -10,10 10,10 0 0 1 -10,-10 10,10 0 0 1 10,-10 10,10 0 0 1 10,10 z"
     inkscape:transform-center-x="-7.2054528"
     inkscape:transform-center-y="-1.1684518"
     style="fill:none;stroke:#60a5fa;stroke-width:8;stroke-linecap:round;stroke-linejoin:round" />
  <path
     id="circle27"
     d="m 143.76825,131.31937 a 10,10 0 0 1 -10,10 10,10 0 0 1 -10,-10 10,10 0 0 1 10,-10 10,10 0 0 1 10,10 z"
     style="fill:none;stroke:#60a5fa;stroke-width:8;stroke-linecap:round;stroke-linejoin:round" />
  <path
     id="circle15-6"
     d="m 123.78149,50.22775 a 10,10 0 0 0 10,10 10,10 0 0 0 10,-10 10,10 0 0 0 -10,-10 10,10 0 0 0 -10,10 z"
     style="fill:none;stroke:#60a5fa;stroke-width:8;stroke-linecap:round;stroke-linejoin:round" />
  <path
     id="line19-7"
     d="m 133.09535,60.497425 c 0.4112,0.913773 -2.47367,26.618142 -43.17424,29.657715 m 65.77276,-16.30303 c 0.4112,0.913773 -2.47367,26.61814 -43.17424,29.65771"
     sodipodi:nodetypes="cc"
     style="fill:none;stroke:#60a5fa;stroke-width:8;stroke-linecap:round;stroke-linejoin:round" />
  <path
     d="M 148.6653,145.27182 H 118.79362 V 98.197693 H 62.80893 V 145.27182 H 32.937246 V 36.145452 H 62.80893 v 42.794655 h 55.98469 V 36.145452 h 29.87168 z"
     style="font-weight:bold;font-size:173.883px;font-family:sans-serif;-inkscape-font-specification:'sans-serif, Bold';fill:#60a5fa;fill-opacity:0.391691;stroke-width:3.55686"
     id="path7180" />
  <style
     id="style96">@media (prefers-color-scheme: light) { :root { filter: none; } }
@media (prefers-color-scheme: dark) { :root { filter: none; } }
</style>
</svg>
